<svg width="1024" height="1024" viewBox="0 0 1024 1024" fill="none" xmlns="http://www.w3.org/2000/svg">
<g clip-path="url(#clip0_1_103)">
<path d="M157.724 396.221C189.501 263.549 304.718 184.191 384.955 207.762C536.095 252.163 476.228 675.661 338.501 629.549C200.774 583.436 480.001 100.956 750.501 244.956C1021 388.956 841.501 882.956 640.455 825.607C439.409 768.258 602.501 325.5 861.501 162.549" stroke="white" stroke-width="65" stroke-linecap="round" stroke-linejoin="round"/>
<path d="M139.87 579.375C160.857 579.375 177.87 562.362 177.87 541.375C177.87 520.388 160.857 503.375 139.87 503.375C118.884 503.375 101.87 520.388 101.87 541.375C101.87 562.362 118.884 579.375 139.87 579.375Z" fill="white"/>
</g>
<defs>
<clipPath id="clip0_1_103">
<rect width="1024" height="1024" fill="white"/>
</clipPath>
</defs>
</svg>
