<svg width="1024" height="1024" viewBox="0 0 1024 1024" fill="none" xmlns="http://www.w3.org/2000/svg">
<g clip-path="url(#clip0_11_32)">
<path d="M1024 0H0V1024H1024V0Z" fill="black"/>
<path d="M459.782 295.472C502.295 430.673 442.667 664.425 338.501 629.549C253.521 601.097 327.279 406.515 459.782 295.472C542.026 226.547 646.904 189.807 750.501 244.956C752.524 246.033 754.522 247.13 756.495 248.246C1018.31 396.316 839.997 882.527 640.454 825.607C468.325 776.507 563.119 444.89 756.495 248.246C754.522 247.13 752.524 246.033 750.501 244.956C646.904 189.807 542.026 226.547 459.782 295.472Z" fill="black"/>
<path d="M157.724 396.221C189.501 263.549 304.718 184.191 384.955 207.762C536.095 252.163 476.228 675.661 338.501 629.549C200.774 583.436 480.001 100.956 750.501 244.956C1021 388.956 841.501 882.956 640.454 825.607C439.408 768.258 602.501 325.5 861.501 162.549" stroke="white" stroke-width="65" stroke-linecap="round" stroke-linejoin="round"/>
<path d="M139.871 579.375C160.857 579.375 177.871 562.362 177.871 541.375C177.871 520.388 160.857 503.375 139.871 503.375C118.884 503.375 101.871 520.388 101.871 541.375C101.871 562.362 118.884 579.375 139.871 579.375Z" fill="white"/>
</g>
<defs>
<clipPath id="clip0_11_32">
<rect width="1024" height="1024" fill="white"/>
</clipPath>
</defs>
</svg>
