<?xml version="1.0" encoding="UTF-8"?>
<svg width="128px" height="128px" viewBox="0 0 128 128" version="1.1" xmlns="http://www.w3.org/2000/svg" xmlns:xlink="http://www.w3.org/1999/xlink">
    <title>Frame 5</title>
    <defs>
        <path d="M0,0 L128,0 L128,128 L0,128 Z" id="path-1"></path>
    </defs>
    <g id="Frame-5" stroke="none" fill="none" xlink:href="#path-1">
        <use fill="#000000" fill-rule="evenodd" xlink:href="#path-1"></use>
        <path d="M23.3179799,40.3289465 C30.3814749,24.8075608 46.4118167,17.8181365 55.6949277,22.6241363 C73.181317,31.6770909 55.7345127,82.2139108 39.9347688,73.270818 C24.135025,64.3277253 69.9048149,11.7856473 99.6615197,35.9066638 C129.418224,60.0276803 95.6105118,116.361877 72.3093044,104.529798 C49.008097,92.697719 79.5803693,42.2596923 115.247115,28.4424729" id="Path-108" stroke="#FFFFFF" stroke-width="8.12499934" stroke-linecap="round" stroke-linejoin="round" transform="translate(69.2825, 63.6348) rotate(-11) translate(-69.2825, -63.6348)"></path>
        <path d="M17.2500004,72.7500004 C19.8733527,72.7500004 22.0000008,70.6233523 22.0000008,68 C22.0000008,65.3766477 19.8733527,63.2500004 17.2500004,63.2500004 C14.626648,63.2500004 12.5000008,65.3766477 12.5000008,68 C12.5000008,70.6233523 14.626648,72.7500004 17.2500004,72.7500004 Z" id="Oval-37" fill="#FFFFFF" fill-rule="evenodd"></path>
    </g>
</svg>